<svg width="134" height="28" viewBox="0 0 134 28" fill="none" xmlns="http://www.w3.org/2000/svg">
<path d="M20.4065 2H7.63463C4.52271 2 2 4.52271 2 7.63463V20.4065C2 23.5184 4.52271 26.0411 7.63463 26.0411H20.4065C23.5184 26.0411 26.0411 23.5184 26.0411 20.4065V7.63463C26.0411 4.52271 23.5184 2 20.4065 2Z" fill="url(#paint0_radial_2_3)"/>
<path d="M20.4065 2H7.63463C4.52271 2 2 4.52271 2 7.63463V20.4065C2 23.5184 4.52271 26.0411 7.63463 26.0411H20.4065C23.5184 26.0411 26.0411 23.5184 26.0411 20.4065V7.63463C26.0411 4.52271 23.5184 2 20.4065 2Z" fill="url(#paint1_radial_2_3)"/>
<path d="M14.0214 4.62949C11.471 4.62949 11.1508 4.64067 10.1492 4.68622C9.14941 4.73204 8.46696 4.89028 7.86988 5.12252C7.25213 5.36237 6.72821 5.68326 6.20625 6.20541C5.68383 6.72745 5.36294 7.25138 5.12234 7.86884C4.88944 8.46611 4.73101 9.14884 4.68603 10.1481C4.64123 11.1499 4.62949 11.4701 4.62949 14.0206C4.62949 16.5712 4.64076 16.8903 4.68622 17.8919C4.73223 18.8917 4.89047 19.5741 5.12252 20.1712C5.36256 20.789 5.68345 21.3129 6.20559 21.8348C6.72745 22.3573 7.25138 22.6789 7.86866 22.9188C8.46621 23.151 9.14875 23.3092 10.1483 23.3551C11.1501 23.4006 11.4699 23.4118 14.0203 23.4118C16.571 23.4118 16.8901 23.4006 17.8917 23.3551C18.8915 23.3092 19.5747 23.151 20.1722 22.9188C20.7897 22.6789 21.3129 22.3573 21.8347 21.8348C22.3571 21.3129 22.6779 20.789 22.9186 20.1715C23.1494 19.5741 23.3079 18.8915 23.3549 17.8921C23.3999 16.8905 23.4116 16.5712 23.4116 14.0206C23.4116 11.4701 23.3999 11.1501 23.3549 10.1483C23.3079 9.14856 23.1494 8.46621 22.9186 7.86913C22.6779 7.25138 22.3571 6.72745 21.8347 6.20541C21.3123 5.68308 20.7899 5.36218 20.1717 5.12262C19.573 4.89028 18.8902 4.73195 17.8904 4.68622C16.8887 4.64067 16.5697 4.62949 14.0185 4.62949H14.0214ZM13.1789 6.32186C13.429 6.32148 13.708 6.32186 14.0214 6.32186C16.5289 6.32186 16.826 6.33087 17.8162 6.37585C18.7318 6.41774 19.2288 6.57072 19.5599 6.69928C19.9981 6.86945 20.3106 7.07295 20.6391 7.40173C20.9678 7.73042 21.1712 8.04342 21.3418 8.4817C21.4704 8.81227 21.6235 9.30924 21.6652 10.2249C21.7102 11.2149 21.72 11.5122 21.72 14.0185C21.72 16.5248 21.7102 16.8222 21.6652 17.8121C21.6234 18.7277 21.4704 19.2247 21.3418 19.5554C21.1716 19.9936 20.9678 20.3057 20.6391 20.6342C20.3104 20.9629 19.9983 21.1663 19.5599 21.3366C19.2292 21.4657 18.7318 21.6183 17.8162 21.6602C16.8262 21.7052 16.5289 21.7149 14.0214 21.7149C11.5138 21.7149 11.2166 21.7052 10.2267 21.6602C9.31103 21.6179 8.81405 21.4649 8.48274 21.3364C8.04455 21.1661 7.73145 20.9627 7.40277 20.634C7.07408 20.3053 6.87067 19.9931 6.70003 19.5546C6.57147 19.2239 6.4183 18.727 6.37661 17.8113C6.33162 16.8213 6.32261 16.524 6.32261 14.0161C6.32261 11.5083 6.33162 11.2125 6.37661 10.2225C6.41849 9.3069 6.57147 8.80992 6.70003 8.47889C6.87029 8.04061 7.07408 7.7276 7.40286 7.39892C7.73155 7.07023 8.04455 6.86672 8.48283 6.69618C8.81386 6.56706 9.31103 6.41445 10.2267 6.37238C11.093 6.33322 11.4287 6.32148 13.1789 6.31951V6.32186ZM19.0343 7.88115C18.4122 7.88115 17.9074 8.38545 17.9074 9.0077C17.9074 9.62985 18.4122 10.1346 19.0343 10.1346C19.6565 10.1346 20.1613 9.62985 20.1613 9.0077C20.1613 8.38554 19.6565 7.88077 19.0343 7.88077V7.88115ZM14.0214 9.19787C11.3581 9.19787 9.19871 11.3572 9.19871 14.0206C9.19871 16.684 11.3581 18.8424 14.0214 18.8424C16.6848 18.8424 18.8434 16.684 18.8434 14.0206C18.8434 11.3573 16.6846 9.19787 14.0212 9.19787H14.0214ZM14.0214 10.8902C15.7502 10.8902 17.1518 12.2917 17.1518 14.0206C17.1518 15.7494 15.7502 17.1511 14.0214 17.1511C12.2925 17.1511 10.8911 15.7494 10.8911 14.0206C10.8911 12.2917 12.2925 10.8902 14.0214 10.8902Z" fill="white"/>
<path d="M31.577 20V6.7H34.655V20H31.577ZM43.8154 9.626C44.626 9.626 45.348 9.79067 45.9814 10.12C46.6274 10.4367 47.134 10.9307 47.5014 11.602C47.8687 12.2607 48.0524 13.1093 48.0524 14.148V20H45.0884V14.604C45.0884 13.7807 44.9047 13.1727 44.5374 12.78C44.1827 12.3873 43.676 12.191 43.0174 12.191C42.5487 12.191 42.1244 12.2923 41.7444 12.495C41.377 12.685 41.0857 12.9827 40.8704 13.388C40.6677 13.7933 40.5664 14.3127 40.5664 14.946V20H37.6024V9.778H40.4334V12.609L39.9014 11.754C40.2687 11.07 40.7944 10.5443 41.4784 10.177C42.1624 9.80967 42.9414 9.626 43.8154 9.626ZM54.1781 20.152C53.3041 20.152 52.4618 20.0507 51.6511 19.848C50.8531 19.6327 50.2198 19.3667 49.7511 19.05L50.7391 16.922C51.2078 17.2133 51.7588 17.454 52.3921 17.644C53.0381 17.8213 53.6714 17.91 54.2921 17.91C54.9761 17.91 55.4574 17.8277 55.7361 17.663C56.0274 17.4983 56.1731 17.2703 56.1731 16.979C56.1731 16.7383 56.0591 16.561 55.8311 16.447C55.6158 16.3203 55.3244 16.2253 54.9571 16.162C54.5898 16.0987 54.1844 16.0353 53.7411 15.972C53.3104 15.9087 52.8734 15.8263 52.4301 15.725C51.9868 15.611 51.5814 15.4463 51.2141 15.231C50.8468 15.0157 50.5491 14.7243 50.3211 14.357C50.1058 13.9897 49.9981 13.5147 49.9981 12.932C49.9981 12.286 50.1818 11.716 50.5491 11.222C50.9291 10.728 51.4738 10.3417 52.1831 10.063C52.8924 9.77167 53.7411 9.626 54.7291 9.626C55.4258 9.626 56.1351 9.702 56.8571 9.854C57.5791 10.006 58.1808 10.2277 58.6621 10.519L57.6741 12.628C57.1801 12.3367 56.6798 12.1403 56.1731 12.039C55.6791 11.925 55.1978 11.868 54.7291 11.868C54.0704 11.868 53.5891 11.9567 53.2851 12.134C52.9811 12.3113 52.8291 12.5393 52.8291 12.818C52.8291 13.0713 52.9368 13.2613 53.1521 13.388C53.3801 13.5147 53.6778 13.616 54.0451 13.692C54.4124 13.768 54.8114 13.8377 55.2421 13.901C55.6854 13.9517 56.1288 14.034 56.5721 14.148C57.0154 14.262 57.4144 14.4267 57.7691 14.642C58.1364 14.8447 58.4341 15.1297 58.6621 15.497C58.8901 15.8517 59.0041 16.3203 59.0041 16.903C59.0041 17.5363 58.8141 18.1 58.4341 18.594C58.0541 19.0753 57.5031 19.4553 56.7811 19.734C56.0718 20.0127 55.2041 20.152 54.1781 20.152ZM65.0128 20.152C63.8095 20.152 62.8722 19.848 62.2008 19.24C61.5295 18.6193 61.1938 17.701 61.1938 16.485V7.517H64.1578V16.447C64.1578 16.8777 64.2718 17.2133 64.4998 17.454C64.7278 17.682 65.0382 17.796 65.4308 17.796C65.8995 17.796 66.2985 17.6693 66.6278 17.416L67.4258 19.506C67.1218 19.7213 66.7545 19.886 66.3238 20C65.9058 20.1013 65.4688 20.152 65.0128 20.152ZM59.6168 12.286V10.006H66.7038V12.286H59.6168ZM75.3597 20V18.005L75.1697 17.568V13.996C75.1697 13.3627 74.9733 12.8687 74.5807 12.514C74.2007 12.1593 73.6117 11.982 72.8137 11.982C72.269 11.982 71.7307 12.0707 71.1987 12.248C70.6793 12.4127 70.236 12.6407 69.8687 12.932L68.8047 10.861C69.362 10.4683 70.0333 10.1643 70.8187 9.949C71.604 9.73367 72.402 9.626 73.2127 9.626C74.7707 9.626 75.9803 9.99333 76.8417 10.728C77.703 11.4627 78.1337 12.609 78.1337 14.167V20H75.3597ZM72.2437 20.152C71.4457 20.152 70.7617 20.019 70.1917 19.753C69.6217 19.4743 69.1847 19.1007 68.8807 18.632C68.5767 18.1633 68.4247 17.6377 68.4247 17.055C68.4247 16.447 68.5703 15.915 68.8617 15.459C69.1657 15.003 69.6407 14.6483 70.2867 14.395C70.9327 14.129 71.775 13.996 72.8137 13.996H75.5307V15.725H73.1367C72.44 15.725 71.9587 15.839 71.6927 16.067C71.4393 16.295 71.3127 16.58 71.3127 16.922C71.3127 17.302 71.4583 17.606 71.7497 17.834C72.0537 18.0493 72.4653 18.157 72.9847 18.157C73.4787 18.157 73.922 18.043 74.3147 17.815C74.7073 17.5743 74.9923 17.226 75.1697 16.77L75.6257 18.138C75.4103 18.7967 75.0177 19.297 74.4477 19.639C73.8777 19.981 73.143 20.152 72.2437 20.152ZM85.6975 23.838C84.7348 23.838 83.8038 23.7177 82.9045 23.477C82.0178 23.249 81.2768 22.9007 80.6815 22.432L81.8595 20.304C82.2901 20.6587 82.8348 20.9373 83.4935 21.14C84.1648 21.3553 84.8235 21.463 85.4695 21.463C86.5208 21.463 87.2808 21.2287 87.7495 20.76C88.2308 20.2913 88.4715 19.5947 88.4715 18.67V17.131L88.6615 14.566L88.6235 11.982V9.778H91.4355V18.29C91.4355 20.19 90.9415 21.5897 89.9535 22.489C88.9655 23.3883 87.5468 23.838 85.6975 23.838ZM85.2415 19.506C84.2915 19.506 83.4301 19.3033 82.6575 18.898C81.8975 18.48 81.2831 17.9037 80.8145 17.169C80.3585 16.4217 80.1305 15.554 80.1305 14.566C80.1305 13.5653 80.3585 12.6977 80.8145 11.963C81.2831 11.2157 81.8975 10.6393 82.6575 10.234C83.4301 9.82867 84.2915 9.626 85.2415 9.626C86.1028 9.626 86.8628 9.80333 87.5215 10.158C88.1801 10.5 88.6931 11.0383 89.0605 11.773C89.4278 12.495 89.6115 13.426 89.6115 14.566C89.6115 15.6933 89.4278 16.6243 89.0605 17.359C88.6931 18.081 88.1801 18.6193 87.5215 18.974C86.8628 19.3287 86.1028 19.506 85.2415 19.506ZM85.8305 17.074C86.3498 17.074 86.8121 16.9727 87.2175 16.77C87.6228 16.5547 87.9395 16.257 88.1675 15.877C88.3955 15.497 88.5095 15.06 88.5095 14.566C88.5095 14.0593 88.3955 13.6223 88.1675 13.255C87.9395 12.875 87.6228 12.5837 87.2175 12.381C86.8121 12.1657 86.3498 12.058 85.8305 12.058C85.3111 12.058 84.8488 12.1657 84.4435 12.381C84.0381 12.5837 83.7151 12.875 83.4745 13.255C83.2465 13.6223 83.1325 14.0593 83.1325 14.566C83.1325 15.06 83.2465 15.497 83.4745 15.877C83.7151 16.257 84.0381 16.5547 84.4435 16.77C84.8488 16.9727 85.3111 17.074 85.8305 17.074ZM94.1942 20V9.778H97.0252V12.666L96.6262 11.83C96.9302 11.108 97.4178 10.5633 98.0892 10.196C98.7605 9.816 99.5775 9.626 100.54 9.626V12.362C100.414 12.3493 100.3 12.343 100.198 12.343C100.097 12.3303 99.9892 12.324 99.8752 12.324C99.0645 12.324 98.4058 12.5583 97.8992 13.027C97.4052 13.483 97.1582 14.1987 97.1582 15.174V20H94.1942ZM107.905 20V18.005L107.715 17.568V13.996C107.715 13.3627 107.518 12.8687 107.126 12.514C106.746 12.1593 106.157 11.982 105.359 11.982C104.814 11.982 104.276 12.0707 103.744 12.248C103.224 12.4127 102.781 12.6407 102.414 12.932L101.35 10.861C101.907 10.4683 102.578 10.1643 103.364 9.949C104.149 9.73367 104.947 9.626 105.758 9.626C107.316 9.626 108.525 9.99333 109.387 10.728C110.248 11.4627 110.679 12.609 110.679 14.167V20H107.905ZM104.789 20.152C103.991 20.152 103.307 20.019 102.737 19.753C102.167 19.4743 101.73 19.1007 101.426 18.632C101.122 18.1633 100.97 17.6377 100.97 17.055C100.97 16.447 101.115 15.915 101.407 15.459C101.711 15.003 102.186 14.6483 102.832 14.395C103.478 14.129 104.32 13.996 105.359 13.996H108.076V15.725H105.682C104.985 15.725 104.504 15.839 104.238 16.067C103.984 16.295 103.858 16.58 103.858 16.922C103.858 17.302 104.003 17.606 104.295 17.834C104.599 18.0493 105.01 18.157 105.53 18.157C106.024 18.157 106.467 18.043 106.86 17.815C107.252 17.5743 107.537 17.226 107.715 16.77L108.171 18.138C107.955 18.7967 107.563 19.297 106.993 19.639C106.423 19.981 105.688 20.152 104.789 20.152ZM126.452 9.626C127.263 9.626 127.978 9.79067 128.599 10.12C129.232 10.4367 129.726 10.9307 130.081 11.602C130.448 12.2607 130.632 13.1093 130.632 14.148V20H127.668V14.604C127.668 13.7807 127.497 13.1727 127.155 12.78C126.813 12.3873 126.332 12.191 125.711 12.191C125.28 12.191 124.894 12.2923 124.552 12.495C124.21 12.685 123.944 12.9763 123.754 13.369C123.564 13.7617 123.469 14.262 123.469 14.87V20H120.505V14.604C120.505 13.7807 120.334 13.1727 119.992 12.78C119.663 12.3873 119.188 12.191 118.567 12.191C118.136 12.191 117.75 12.2923 117.408 12.495C117.066 12.685 116.8 12.9763 116.61 13.369C116.42 13.7617 116.325 14.262 116.325 14.87V20H113.361V9.778H116.192V12.571L115.66 11.754C116.015 11.0573 116.515 10.5317 117.161 10.177C117.82 9.80967 118.567 9.626 119.403 9.626C120.34 9.626 121.157 9.86667 121.854 10.348C122.563 10.8167 123.032 11.5387 123.26 12.514L122.215 12.229C122.557 11.431 123.102 10.7977 123.849 10.329C124.609 9.86033 125.477 9.626 126.452 9.626Z" fill="black"/>
<defs>
<radialGradient id="paint0_radial_2_3" cx="0" cy="0" r="1" gradientUnits="userSpaceOnUse" gradientTransform="translate(8.38592 27.8927) rotate(-90) scale(23.8265 22.1605)">
<stop stop-color="#FFDD55"/>
<stop offset="0.1" stop-color="#FFDD55"/>
<stop offset="0.5" stop-color="#FF543E"/>
<stop offset="1" stop-color="#C837AB"/>
</radialGradient>
<radialGradient id="paint1_radial_2_3" cx="0" cy="0" r="1" gradientUnits="userSpaceOnUse" gradientTransform="translate(-2.02698 3.7318) rotate(78.681) scale(10.6506 43.902)">
<stop stop-color="#3771C8"/>
<stop offset="0.128" stop-color="#3771C8"/>
<stop offset="1" stop-color="#6600FF" stop-opacity="0"/>
</radialGradient>
</defs>
</svg>
