<svg width="130" height="25" viewBox="0 0 130 25" fill="none" xmlns="http://www.w3.org/2000/svg">
<path d="M18.4065 0H5.63463C2.52271 0 0 2.52271 0 5.63463V18.4065C0 21.5184 2.52271 24.0411 5.63463 24.0411H18.4065C21.5184 24.0411 24.0411 21.5184 24.0411 18.4065V5.63463C24.0411 2.52271 21.5184 0 18.4065 0Z" fill="url(#paint0_radial_1_2)"/>
<path d="M18.4065 0H5.63463C2.52271 0 0 2.52271 0 5.63463V18.4065C0 21.5184 2.52271 24.0411 5.63463 24.0411H18.4065C21.5184 24.0411 24.0411 21.5184 24.0411 18.4065V5.63463C24.0411 2.52271 21.5184 0 18.4065 0Z" fill="url(#paint1_radial_1_2)"/>
<path d="M12.0214 2.62949C9.47097 2.62949 9.15083 2.64067 8.14918 2.68622C7.14941 2.73204 6.46696 2.89028 5.86988 3.12252C5.25213 3.36237 4.72821 3.68326 4.20625 4.20541C3.68383 4.72745 3.36294 5.25138 3.12234 5.86884C2.88944 6.46611 2.73101 7.14884 2.68603 8.14815C2.64123 9.14989 2.62949 9.47013 2.62949 12.0206C2.62949 14.5712 2.64076 14.8903 2.68622 15.8919C2.73223 16.8917 2.89047 17.5741 3.12252 18.1712C3.36256 18.789 3.68345 19.3129 4.20559 19.8348C4.72745 20.3573 5.25138 20.6789 5.86866 20.9188C6.46621 21.151 7.14875 21.3092 8.14833 21.3551C9.15008 21.4006 9.46994 21.4118 12.0203 21.4118C14.571 21.4118 14.8901 21.4006 15.8917 21.3551C16.8915 21.3092 17.5747 21.151 18.1722 20.9188C18.7897 20.6789 19.3129 20.3573 19.8347 19.8348C20.3571 19.3129 20.6779 18.789 20.9186 18.1715C21.1494 17.5741 21.3079 16.8915 21.3549 15.8921C21.3999 14.8905 21.4116 14.5712 21.4116 12.0206C21.4116 9.47013 21.3999 9.15008 21.3549 8.14833C21.3079 7.14856 21.1494 6.46621 20.9186 5.86913C20.6779 5.25138 20.3571 4.72745 19.8347 4.20541C19.3123 3.68308 18.7899 3.36218 18.1717 3.12262C17.573 2.89028 16.8902 2.73195 15.8904 2.68622C14.8887 2.64067 14.5697 2.62949 12.0185 2.62949H12.0214ZM11.1789 4.32186C11.429 4.32148 11.708 4.32186 12.0214 4.32186C14.5289 4.32186 14.826 4.33087 15.8162 4.37585C16.7318 4.41774 17.2288 4.57072 17.5599 4.69928C17.9981 4.86945 18.3106 5.07295 18.6391 5.40173C18.9678 5.73042 19.1712 6.04342 19.3418 6.4817C19.4704 6.81227 19.6235 7.30924 19.6652 8.22487C19.7102 9.21488 19.72 9.5122 19.72 12.0185C19.72 14.5248 19.7102 14.8222 19.6652 15.8121C19.6234 16.7277 19.4704 17.2247 19.3418 17.5554C19.1716 17.9936 18.9678 18.3057 18.6391 18.6342C18.3104 18.9629 17.9983 19.1663 17.5599 19.3366C17.2292 19.4657 16.7318 19.6183 15.8162 19.6602C14.8262 19.7052 14.5289 19.7149 12.0214 19.7149C9.51379 19.7149 9.21657 19.7052 8.22665 19.6602C7.31103 19.6179 6.81405 19.4649 6.48274 19.3364C6.04455 19.1661 5.73145 18.9627 5.40277 18.634C5.07408 18.3053 4.87067 17.9931 4.70003 17.5546C4.57147 17.2239 4.4183 16.727 4.37661 15.8113C4.33162 14.8213 4.32261 14.524 4.32261 12.0161C4.32261 9.50835 4.33162 9.21253 4.37661 8.22252C4.41849 7.3069 4.57147 6.80992 4.70003 6.47889C4.87029 6.04061 5.07408 5.7276 5.40286 5.39892C5.73155 5.07023 6.04455 4.86672 6.48283 4.69618C6.81386 4.56706 7.31103 4.41445 8.22665 4.37238C9.09298 4.33322 9.42871 4.32148 11.1789 4.31951V4.32186ZM17.0343 5.88115C16.4122 5.88115 15.9074 6.38545 15.9074 7.0077C15.9074 7.62985 16.4122 8.13462 17.0343 8.13462C17.6565 8.13462 18.1613 7.62985 18.1613 7.0077C18.1613 6.38554 17.6565 5.88077 17.0343 5.88077V5.88115ZM12.0214 7.19787C9.35809 7.19787 7.19871 9.35724 7.19871 12.0206C7.19871 14.684 9.35809 16.8424 12.0214 16.8424C14.6848 16.8424 16.8434 14.684 16.8434 12.0206C16.8434 9.35734 14.6846 7.19787 12.0212 7.19787H12.0214ZM12.0214 8.89023C13.7502 8.89023 15.1518 10.2917 15.1518 12.0206C15.1518 13.7494 13.7502 15.1511 12.0214 15.1511C10.2925 15.1511 8.89107 13.7494 8.89107 12.0206C8.89107 10.2917 10.2925 8.89023 12.0214 8.89023Z" fill="white"/>
<path d="M29.1797 18.8904V5.59041H32.2577V18.8904H29.1797ZM41.4181 8.51641C42.2288 8.51641 42.9508 8.68107 43.5841 9.01041C44.2301 9.32707 44.7368 9.82107 45.1041 10.4924C45.4715 11.1511 45.6551 11.9997 45.6551 13.0384V18.8904H42.6911V13.4944C42.6911 12.6711 42.5074 12.0631 42.1401 11.6704C41.7854 11.2777 41.2788 11.0814 40.6201 11.0814C40.1515 11.0814 39.7271 11.1827 39.3471 11.3854C38.9798 11.5754 38.6884 11.8731 38.4731 12.2784C38.2704 12.6837 38.1691 13.2031 38.1691 13.8364V18.8904H35.2051V8.66841H38.0361V11.4994L37.5041 10.6444C37.8714 9.96041 38.3971 9.43474 39.0811 9.06741C39.7651 8.70007 40.5441 8.51641 41.4181 8.51641ZM51.7808 19.0424C50.9068 19.0424 50.0645 18.9411 49.2538 18.7384C48.4558 18.5231 47.8225 18.2571 47.3538 17.9404L48.3418 15.8124C48.8105 16.1037 49.3615 16.3444 49.9948 16.5344C50.6408 16.7117 51.2742 16.8004 51.8948 16.8004C52.5788 16.8004 53.0602 16.7181 53.3388 16.5534C53.6302 16.3887 53.7758 16.1607 53.7758 15.8694C53.7758 15.6287 53.6618 15.4514 53.4338 15.3374C53.2185 15.2107 52.9272 15.1157 52.5598 15.0524C52.1925 14.9891 51.7872 14.9257 51.3438 14.8624C50.9132 14.7991 50.4762 14.7167 50.0328 14.6154C49.5895 14.5014 49.1842 14.3367 48.8168 14.1214C48.4495 13.9061 48.1518 13.6147 47.9238 13.2474C47.7085 12.8801 47.6008 12.4051 47.6008 11.8224C47.6008 11.1764 47.7845 10.6064 48.1518 10.1124C48.5318 9.61841 49.0765 9.23207 49.7858 8.95341C50.4952 8.66207 51.3438 8.51641 52.3318 8.51641C53.0285 8.51641 53.7378 8.59241 54.4598 8.74441C55.1818 8.89641 55.7835 9.11807 56.2648 9.40941L55.2768 11.5184C54.7828 11.2271 54.2825 11.0307 53.7758 10.9294C53.2818 10.8154 52.8005 10.7584 52.3318 10.7584C51.6732 10.7584 51.1918 10.8471 50.8878 11.0244C50.5838 11.2017 50.4318 11.4297 50.4318 11.7084C50.4318 11.9617 50.5395 12.1517 50.7548 12.2784C50.9828 12.4051 51.2805 12.5064 51.6478 12.5824C52.0152 12.6584 52.4142 12.7281 52.8448 12.7914C53.2882 12.8421 53.7315 12.9244 54.1748 13.0384C54.6182 13.1524 55.0172 13.3171 55.3718 13.5324C55.7392 13.7351 56.0368 14.0201 56.2648 14.3874C56.4928 14.7421 56.6068 15.2107 56.6068 15.7934C56.6068 16.4267 56.4168 16.9904 56.0368 17.4844C55.6568 17.9657 55.1058 18.3457 54.3838 18.6244C53.6745 18.9031 52.8068 19.0424 51.7808 19.0424ZM62.6156 19.0424C61.4123 19.0424 60.4749 18.7384 59.8036 18.1304C59.1323 17.5097 58.7966 16.5914 58.7966 15.3754V6.40741H61.7606V15.3374C61.7606 15.7681 61.8746 16.1037 62.1026 16.3444C62.3306 16.5724 62.6409 16.6864 63.0336 16.6864C63.5023 16.6864 63.9013 16.5597 64.2306 16.3064L65.0286 18.3964C64.7246 18.6117 64.3573 18.7764 63.9266 18.8904C63.5086 18.9917 63.0716 19.0424 62.6156 19.0424ZM57.2196 11.1764V8.89641H64.3066V11.1764H57.2196ZM72.9624 18.8904V16.8954L72.7724 16.4584V12.8864C72.7724 12.2531 72.5761 11.7591 72.1834 11.4044C71.8034 11.0497 71.2144 10.8724 70.4164 10.8724C69.8718 10.8724 69.3334 10.9611 68.8014 11.1384C68.2821 11.3031 67.8388 11.5311 67.4714 11.8224L66.4074 9.75141C66.9648 9.35874 67.6361 9.05474 68.4214 8.83941C69.2068 8.62407 70.0048 8.51641 70.8154 8.51641C72.3734 8.51641 73.5831 8.88374 74.4444 9.61841C75.3058 10.3531 75.7364 11.4994 75.7364 13.0574V18.8904H72.9624ZM69.8464 19.0424C69.0484 19.0424 68.3644 18.9094 67.7944 18.6434C67.2244 18.3647 66.7874 17.9911 66.4834 17.5224C66.1794 17.0537 66.0274 16.5281 66.0274 15.9454C66.0274 15.3374 66.1731 14.8054 66.4644 14.3494C66.7684 13.8934 67.2434 13.5387 67.8894 13.2854C68.5354 13.0194 69.3778 12.8864 70.4164 12.8864H73.1334V14.6154H70.7394C70.0428 14.6154 69.5614 14.7294 69.2954 14.9574C69.0421 15.1854 68.9154 15.4704 68.9154 15.8124C68.9154 16.1924 69.0611 16.4964 69.3524 16.7244C69.6564 16.9397 70.0681 17.0474 70.5874 17.0474C71.0814 17.0474 71.5248 16.9334 71.9174 16.7054C72.3101 16.4647 72.5951 16.1164 72.7724 15.6604L73.2284 17.0284C73.0131 17.6871 72.6204 18.1874 72.0504 18.5294C71.4804 18.8714 70.7458 19.0424 69.8464 19.0424ZM83.3002 22.7284C82.3375 22.7284 81.4065 22.6081 80.5072 22.3674C79.6205 22.1394 78.8795 21.7911 78.2842 21.3224L79.4622 19.1944C79.8929 19.5491 80.4375 19.8277 81.0962 20.0304C81.7675 20.2457 82.4262 20.3534 83.0722 20.3534C84.1235 20.3534 84.8835 20.1191 85.3522 19.6504C85.8335 19.1817 86.0742 18.4851 86.0742 17.5604V16.0214L86.2642 13.4564L86.2262 10.8724V8.66841H89.0382V17.1804C89.0382 19.0804 88.5442 20.4801 87.5562 21.3794C86.5682 22.2787 85.1495 22.7284 83.3002 22.7284ZM82.8442 18.3964C81.8942 18.3964 81.0329 18.1937 80.2602 17.7884C79.5002 17.3704 78.8859 16.7941 78.4172 16.0594C77.9612 15.3121 77.7332 14.4444 77.7332 13.4564C77.7332 12.4557 77.9612 11.5881 78.4172 10.8534C78.8859 10.1061 79.5002 9.52974 80.2602 9.12441C81.0329 8.71907 81.8942 8.51641 82.8442 8.51641C83.7055 8.51641 84.4655 8.69374 85.1242 9.04841C85.7829 9.39041 86.2959 9.92874 86.6632 10.6634C87.0305 11.3854 87.2142 12.3164 87.2142 13.4564C87.2142 14.5837 87.0305 15.5147 86.6632 16.2494C86.2959 16.9714 85.7829 17.5097 85.1242 17.8644C84.4655 18.2191 83.7055 18.3964 82.8442 18.3964ZM83.4332 15.9644C83.9525 15.9644 84.4149 15.8631 84.8202 15.6604C85.2255 15.4451 85.5422 15.1474 85.7702 14.7674C85.9982 14.3874 86.1122 13.9504 86.1122 13.4564C86.1122 12.9497 85.9982 12.5127 85.7702 12.1454C85.5422 11.7654 85.2255 11.4741 84.8202 11.2714C84.4149 11.0561 83.9525 10.9484 83.4332 10.9484C82.9139 10.9484 82.4515 11.0561 82.0462 11.2714C81.6409 11.4741 81.3179 11.7654 81.0772 12.1454C80.8492 12.5127 80.7352 12.9497 80.7352 13.4564C80.7352 13.9504 80.8492 14.3874 81.0772 14.7674C81.3179 15.1474 81.6409 15.4451 82.0462 15.6604C82.4515 15.8631 82.9139 15.9644 83.4332 15.9644ZM91.7969 18.8904V8.66841H94.6279V11.5564L94.2289 10.7204C94.5329 9.99841 95.0206 9.45374 95.6919 9.08641C96.3632 8.70641 97.1802 8.51641 98.1429 8.51641V11.2524C98.0162 11.2397 97.9022 11.2334 97.8009 11.2334C97.6996 11.2207 97.5919 11.2144 97.4779 11.2144C96.6672 11.2144 96.0086 11.4487 95.5019 11.9174C95.0079 12.3734 94.7609 13.0891 94.7609 14.0644V18.8904H91.7969ZM105.507 18.8904V16.8954L105.317 16.4584V12.8864C105.317 12.2531 105.121 11.7591 104.728 11.4044C104.348 11.0497 103.759 10.8724 102.961 10.8724C102.417 10.8724 101.878 10.9611 101.346 11.1384C100.827 11.3031 100.384 11.5311 100.016 11.8224L98.9523 9.75141C99.5097 9.35874 100.181 9.05474 100.966 8.83941C101.752 8.62407 102.55 8.51641 103.36 8.51641C104.918 8.51641 106.128 8.88374 106.989 9.61841C107.851 10.3531 108.281 11.4994 108.281 13.0574V18.8904H105.507ZM102.391 19.0424C101.593 19.0424 100.909 18.9094 100.339 18.6434C99.7693 18.3647 99.3323 17.9911 99.0283 17.5224C98.7243 17.0537 98.5723 16.5281 98.5723 15.9454C98.5723 15.3374 98.718 14.8054 99.0093 14.3494C99.3133 13.8934 99.7883 13.5387 100.434 13.2854C101.08 13.0194 101.923 12.8864 102.961 12.8864H105.678V14.6154H103.284C102.588 14.6154 102.106 14.7294 101.84 14.9574C101.587 15.1854 101.46 15.4704 101.46 15.8124C101.46 16.1924 101.606 16.4964 101.897 16.7244C102.201 16.9397 102.613 17.0474 103.132 17.0474C103.626 17.0474 104.07 16.9334 104.462 16.7054C104.855 16.4647 105.14 16.1164 105.317 15.6604L105.773 17.0284C105.558 17.6871 105.165 18.1874 104.595 18.5294C104.025 18.8714 103.291 19.0424 102.391 19.0424ZM124.055 8.51641C124.866 8.51641 125.581 8.68107 126.202 9.01041C126.835 9.32707 127.329 9.82107 127.684 10.4924C128.051 11.1511 128.235 11.9997 128.235 13.0384V18.8904H125.271V13.4944C125.271 12.6711 125.1 12.0631 124.758 11.6704C124.416 11.2777 123.935 11.0814 123.314 11.0814C122.883 11.0814 122.497 11.1827 122.155 11.3854C121.813 11.5754 121.547 11.8667 121.357 12.2594C121.167 12.6521 121.072 13.1524 121.072 13.7604V18.8904H118.108V13.4944C118.108 12.6711 117.937 12.0631 117.595 11.6704C117.266 11.2777 116.791 11.0814 116.17 11.0814C115.739 11.0814 115.353 11.1827 115.011 11.3854C114.669 11.5754 114.403 11.8667 114.213 12.2594C114.023 12.6521 113.928 13.1524 113.928 13.7604V18.8904H110.964V8.66841H113.795V11.4614L113.263 10.6444C113.618 9.94774 114.118 9.42207 114.764 9.06741C115.423 8.70007 116.17 8.51641 117.006 8.51641C117.943 8.51641 118.76 8.75707 119.457 9.23841C120.166 9.70707 120.635 10.4291 120.863 11.4044L119.818 11.1194C120.16 10.3214 120.705 9.68807 121.452 9.21941C122.212 8.75074 123.08 8.51641 124.055 8.51641Z" fill="black"/>
<defs>
<radialGradient id="paint0_radial_1_2" cx="0" cy="0" r="1" gradientUnits="userSpaceOnUse" gradientTransform="translate(6.38592 25.8927) rotate(-90) scale(23.8265 22.1605)">
<stop stop-color="#FFDD55"/>
<stop offset="0.1" stop-color="#FFDD55"/>
<stop offset="0.5" stop-color="#FF543E"/>
<stop offset="1" stop-color="#C837AB"/>
</radialGradient>
<radialGradient id="paint1_radial_1_2" cx="0" cy="0" r="1" gradientUnits="userSpaceOnUse" gradientTransform="translate(-4.02698 1.7318) rotate(78.681) scale(10.6506 43.902)">
<stop stop-color="#3771C8"/>
<stop offset="0.128" stop-color="#3771C8"/>
<stop offset="1" stop-color="#6600FF" stop-opacity="0"/>
</radialGradient>
</defs>
</svg>
    