<svg xmlns="http://www.w3.org/2000/svg" width="64" height="55" fill="none" viewBox="0 0 64 55"><path fill="#C8832E" fill-rule="evenodd" d="M22.03 12.803c0 1.614-1.255 2.919-2.801 2.919-1.55 0-2.801-1.305-2.801-2.92 0-1.611 1.25-2.922 2.8-2.922 1.548 0 2.802 1.31 2.802 2.923" clip-rule="evenodd"/><path fill="#C8832E" fill-rule="evenodd" d="M15.313 24.54s6.567-4.071 3.214-12.304c0 0 11.883 17.11 15.239 9.83 3.354-7.281-.98 8.885-1.258 9.32-.28.439-5.872 4.808-5.872 4.808h-8.805z" clip-rule="evenodd"/><path fill="#C8832E" d="M44.695 15.722c1.548 0 2.804-1.307 2.804-2.92 0-1.611-1.256-2.918-2.804-2.918-1.549 0-2.804 1.307-2.804 2.919s1.255 2.919 2.804 2.919"/><path fill="#C8832E" fill-rule="evenodd" d="M48.606 24.54s-6.57-4.071-3.215-12.304c0 0-11.884 17.11-15.24 9.83-3.353-7.281.981 8.885 1.263 9.32.274.439 5.867 4.808 5.867 4.808h8.81z" clip-rule="evenodd"/><path fill="#F79420" fill-rule="evenodd" d="M60.03 9.897c-2.146 0-3.884 1.907-3.884 4.263 0 .628.13 1.224.353 1.76-6.01 3.454-11.595 8.788-11.595 8.788-5.079 5.863-9.192-3.694-11.435-11.02 2.732-.771 4.757-3.488 4.757-6.73C38.226 3.115 35.39 0 31.888 0c-3.501 0-6.338 3.115-6.338 6.958 0 3.293 2.085 6.04 4.886 6.768-2.248 7.327-6.354 16.843-11.42 10.987 0 0-5.585-5.334-11.601-8.788a4.6 4.6 0 0 0 .355-1.76c0-2.356-1.74-4.263-3.884-4.263S.002 11.809.002 14.165s1.74 4.265 3.884 4.265c.72 0 1.383-.229 1.963-.604 2.244 4.679 5.412 13.09 3.758 20.804 0 0 2.435 9.755 22.351 9.426 19.915.329 22.347-9.426 22.347-9.426-1.652-7.711 1.515-16.12 3.761-20.804.58.375 1.243.604 1.963.604 2.145 0 3.885-1.909 3.885-4.265s-1.739-4.264-3.884-4.264" clip-rule="evenodd"/><path fill="#C8832E" fill-rule="evenodd" d="M31.96 50.286c-15.913.263-20.662-5.91-21.927-8.402a21 21 0 0 1-.424 3.347s2.435 9.753 22.351 9.428c19.915.325 22.347-9.428 22.347-9.428a21 21 0 0 1-.422-3.347c-1.265 2.493-6.01 8.665-21.925 8.402" clip-rule="evenodd"/><path fill="#F19D43" fill-rule="evenodd" d="M31.059 47.945c2.858-14.365 4.01-29.03-.271-43.3-.488-1.624-.616-3.138-.475-4.531-2.74.769-4.765 3.486-4.765 6.734 0 3.293 2.085 6.05 4.886 6.766-2.248 7.329-6.354 16.847-11.42 10.989 0 0-5.585-5.334-11.601-8.79a4.6 4.6 0 0 0 .355-1.76c0-2.352-1.74-4.261-3.884-4.261S0 11.7 0 14.052c0 2.359 1.74 4.268 3.884 4.268.72 0 1.383-.231 1.963-.604 2.244 4.676 5.412 13.09 3.758 20.8 0 0 2.375 9.448 21.454 9.432" clip-rule="evenodd"/><path fill="#fff" d="m31.787 34 1.4 2.617 3.129.417-2.267 2.034.537 2.875-2.8-1.36-2.795 1.36.535-2.875-2.264-2.034 3.125-.417z"/><path fill="#fff" d="M31.735 35.376a6.6 6.6 0 0 1 .08-1.323L31.789 34l-1.4 2.615-3.127.42 2.26 2.032-.532 2.876 2.8-1.357 2.794 1.357-.225-1.221c-1.596-1.39-2.545-3.32-2.624-5.346m10.991.044.861 1.601 1.915.258-1.384 1.245.322 1.765-1.714-.828-1.714.828.328-1.765-1.386-1.245 1.92-.258z"/><path fill="#fff" d="M42.692 36.263a4 4 0 0 1 .05-.811l-.016-.033-.857 1.602-1.917.258 1.386 1.245-.325 1.765 1.713-.828 1.714.828-.138-.749c-.978-.854-1.56-2.04-1.61-3.277m-21.917-.843.856 1.601 1.915.258-1.386 1.245.328 1.765-1.713-.828-1.714.828.328-1.765L18 37.28l1.916-.258z"/><path fill="#fff" d="M20.74 36.263a3.6 3.6 0 0 1 .052-.811l-.017-.033-.86 1.602-1.915.258 1.386 1.245-.326 1.765 1.714-.828 1.714.828-.14-.749c-.977-.854-1.559-2.04-1.608-3.277"/></svg>